<?xml version="1.0"?>
<svg xmlns="http://www.w3.org/2000/svg" xmlns:xlink="http://www.w3.org/1999/xlink" version="1.1" viewBox="0 0 252 252" width="500px" height="500px"><g fill="none" fill-rule="nonzero" stroke="none" stroke-width="1" stroke-linecap="butt" stroke-linejoin="miter" stroke-miterlimit="10" stroke-dasharray="" stroke-dashoffset="0" font-family="none" font-weight="none" font-size="none" text-anchor="none" style="mix-blend-mode: normal"><path d="M0,252v-252h252v252z" fill="none"/><path d="M12.6,252c-6.95879,0 -12.6,-5.64121 -12.6,-12.6v-226.8c0,-6.95879 5.64121,-12.6 12.6,-12.6h226.8c6.95879,0 12.6,5.64121 12.6,12.6v226.8c0,6.95879 -5.64121,12.6 -12.6,12.6z" fill="#4a6537"/><g fill="#f8f9fa"><g id="surface1"><path d="M136.584,37.8c-7.78641,0 -14.112,6.32559 -14.112,14.112c0,2.57709 0.77175,4.97503 1.9845,7.056h-26.6805c-1.94316,0 -3.528,1.58484 -3.528,3.528v10.584c0,1.94316 1.58484,3.528 3.528,3.528h56.448c1.95694,0 3.528,-1.58484 3.528,-3.528v-10.584c0,-1.94316 -1.57106,-3.528 -3.528,-3.528h-5.5125c1.21275,-2.08097 1.9845,-4.47891 1.9845,-7.056c0,-7.78641 -6.32559,-14.112 -14.112,-14.112zM136.584,44.856c3.88631,0 7.056,3.16969 7.056,7.056c0,3.88631 -3.16969,7.056 -7.056,7.056c-3.88631,0 -7.056,-3.16969 -7.056,-7.056c0,-3.88631 3.16969,-7.056 7.056,-7.056zM101.304,80.136v27.89325c-0.49613,2.26012 -7.18003,12.15506 -13.11975,20.83725c-17.90184,26.18437 -32.74425,48.93722 -32.74425,61.74c0,18.70116 19.81744,23.5935 30.31875,23.5935h80.4825c10.50131,0 30.31875,-4.89234 30.31875,-23.5935c0,-12.80278 -14.84241,-35.55563 -32.74425,-61.74c-5.93972,-8.68219 -12.63741,-18.522 -13.11975,-20.5065v-28.224h-7.056v28.224c0,3.19725 3.47287,8.58572 14.3325,24.4755c0.82687,1.19897 1.66753,2.46684 2.53575,3.7485h-69.12675c0.86822,-1.26788 1.81912,-2.54953 2.646,-3.7485c10.85963,-15.88978 14.3325,-21.27825 14.3325,-24.4755v-28.224zM126,87.192c-7.78641,0 -14.112,6.32559 -14.112,14.112c0,7.78641 6.32559,14.112 14.112,14.112c7.78641,0 14.112,-6.32559 14.112,-14.112c0,-7.78641 -6.32559,-14.112 -14.112,-14.112zM126,94.248c3.88631,0 7.056,3.16969 7.056,7.056c0,3.88631 -3.16969,7.056 -7.056,7.056c-3.88631,0 -7.056,-3.16969 -7.056,-7.056c0,-3.88631 3.16969,-7.056 7.056,-7.056zM108.36,154.224c5.84325,0 10.584,4.74075 10.584,10.584c0,5.84325 -4.74075,10.584 -10.584,10.584c-5.84325,0 -10.584,-4.74075 -10.584,-10.584c0,-5.84325 4.74075,-10.584 10.584,-10.584zM147.168,168.336c7.80019,0 14.112,6.31181 14.112,14.112c0,7.80019 -6.31181,14.112 -14.112,14.112c-7.80019,0 -14.112,-6.31181 -14.112,-14.112c0,-7.80019 6.31181,-14.112 14.112,-14.112z"/></g></g></g></svg>
